<?xml version="1.0" standalone="no"?>
<!DOCTYPE svg PUBLIC "-//W3C//DTD SVG 20010904//EN"
 "http://www.w3.org/TR/2001/REC-SVG-20010904/DTD/svg10.dtd">
<svg version="1.0" xmlns="http://www.w3.org/2000/svg"
 width="640.000000pt" height="640.000000pt" viewBox="0 0 640.000000 640.000000"
 preserveAspectRatio="xMidYMid meet">
<metadata>
Created by potrace 1.14, written by Peter Selinger 2001-2017
</metadata>
<g transform="translate(0.000000,640.000000) scale(0.100000,-0.100000)"
fill="#000000" stroke="none">
<path d="M3008 6315 c-2 -1 -36 -6 -76 -9 -40 -4 -78 -9 -85 -11 -7 -2 -30 -6
-52 -9 -22 -2 -83 -14 -135 -26 -52 -12 -102 -23 -111 -25 -43 -9 -266 -88
-302 -107 -23 -11 -43 -21 -44 -20 -11 3 -43 -13 -43 -21 0 -6 -3 -8 -6 -4
-15 15 -341 -177 -449 -264 -235 -191 -399 -361 -526 -544 -19 -27 -37 -52
-40 -55 -28 -25 -181 -313 -234 -440 -64 -154 -135 -407 -151 -535 -3 -22 -7
-45 -9 -52 -27 -82 -26 -589 1 -708 2 -11 6 -36 9 -55 8 -61 16 -104 21 -120
3 -8 8 -26 10 -40 3 -14 12 -50 22 -80 9 -30 15 -59 14 -64 -2 -4 3 -14 9 -22
6 -8 9 -14 6 -14 -4 0 2 -20 13 -45 11 -25 19 -46 19 -48 0 -1 4 -15 10 -30 6
-16 11 -30 11 -32 0 -5 34 -80 78 -175 14 -30 47 -93 74 -139 26 -46 48 -85
48 -87 0 -2 17 -28 37 -56 90 -128 136 -188 146 -188 6 0 8 -3 4 -6 -11 -11
212 -245 315 -329 33 -28 70 -58 82 -68 35 -31 166 -121 241 -167 135 -83 416
-213 505 -235 8 -2 35 -10 60 -18 221 -73 476 -107 770 -102 113 2 214 6 225
8 11 3 45 8 75 12 172 22 493 110 600 165 22 11 40 18 40 16 0 -7 220 107 295
153 74 46 176 115 210 142 235 191 399 361 526 544 19 28 37 52 40 55 27 24
190 325 181 335 -3 3 -1 5 5 5 6 0 13 9 16 20 3 11 6 24 7 28 1 4 11 24 21 44
17 32 95 257 104 297 2 9 14 59 25 111 12 52 24 113 26 135 3 22 7 46 9 53 26
74 26 562 1 707 -3 17 -8 46 -12 65 -5 34 -15 83 -28 143 -9 38 -32 124 -46
167 -6 19 -13 42 -15 50 -24 90 -155 377 -218 477 -15 24 -27 45 -27 48 0 5
-51 80 -114 165 -108 147 -283 332 -412 435 -27 22 -55 46 -62 53 -61 57 -319
216 -466 286 -146 69 -352 142 -486 170 -14 3 -47 11 -75 17 -27 5 -59 12 -70
13 -11 2 -45 7 -75 11 -30 4 -64 10 -75 12 -21 5 -462 13 -467 8z m452 -169
c19 -3 57 -8 84 -11 27 -3 88 -15 134 -26 47 -11 95 -21 106 -24 12 -2 21 -4
21 -5 0 -1 8 -3 18 -6 9 -2 25 -6 35 -8 9 -3 17 -5 17 -6 0 -1 7 -3 15 -5 23
-5 133 -45 152 -56 10 -5 22 -9 28 -9 15 0 265 -122 268 -132 2 -4 8 -8 14 -8
11 0 213 -134 274 -182 159 -125 304 -273 422 -428 61 -82 162 -236 162 -249
0 -5 4 -11 8 -13 8 -3 93 -173 127 -253 20 -47 74 -202 80 -229 2 -10 9 -33
14 -50 12 -35 39 -164 47 -216 2 -19 7 -45 9 -56 20 -92 27 -459 11 -584 -18
-143 -25 -187 -48 -275 -11 -44 -22 -91 -25 -104 -2 -14 -6 -28 -9 -33 -3 -4
-7 -16 -9 -26 -1 -9 -20 -62 -40 -117 -208 -554 -619 -1011 -1145 -1271 -105
-53 -284 -126 -340 -140 -8 -2 -55 -15 -105 -28 -49 -13 -108 -27 -129 -30
-21 -4 -48 -8 -60 -11 -126 -28 -484 -41 -641 -22 -33 4 -80 10 -105 12 -25 3
-53 8 -62 11 -10 3 -30 7 -45 10 -16 3 -55 12 -88 21 -33 8 -67 16 -75 18 -40
8 -234 77 -305 108 -148 66 -306 155 -410 231 -229 168 -387 324 -533 525 -34
47 -66 91 -70 96 -4 6 -33 53 -63 105 -53 89 -68 118 -132 260 -32 70 -108
290 -100 290 3 0 0 7 -7 15 -7 8 -10 15 -7 15 3 0 -3 32 -13 70 -10 39 -18 73
-18 75 0 3 -3 18 -6 33 -6 27 -10 57 -23 167 -9 81 -10 404 0 485 11 97 25
195 27 195 2 0 9 33 15 65 2 14 4 25 5 25 1 0 3 10 6 23 9 47 63 220 93 296
216 539 615 975 1128 1230 110 55 292 130 343 141 8 2 45 13 83 24 37 11 67
17 67 15 0 -3 6 -2 12 2 7 5 19 9 28 10 22 2 83 14 100 19 18 5 72 12 160 21
36 4 66 8 68 9 6 5 396 -3 432 -9z"/>
<path d="M3189 5529 c-146 -22 -243 -133 -243 -279 0 -81 26 -142 84 -200 l42
-42 -163 -164 -164 -164 -55 0 c-121 0 -233 -89 -264 -208 -27 -100 8 -221 81
-281 l36 -29 -29 -27 c-16 -15 -73 -68 -128 -118 -159 -148 -156 -146 -179
-140 -76 18 -198 -12 -252 -63 -68 -64 -101 -149 -93 -242 7 -71 57 -164 101
-189 16 -8 -10 -33 -190 -178 -141 -114 -221 -172 -249 -181 -142 -43 -224
-150 -218 -286 6 -152 126 -268 279 -269 158 -1 279 117 281 276 1 83 -13 122
-69 189 l-41 49 30 24 c153 128 348 283 354 283 3 0 25 -19 50 -41 25 -22 71
-64 103 -92 33 -29 69 -61 81 -72 12 -11 41 -37 65 -58 l42 -38 -35 -39 c-62
-69 -80 -115 -80 -201 0 -59 6 -86 23 -120 78 -151 254 -205 398 -123 44 25
101 90 121 136 64 151 -27 332 -191 380 -44 13 -61 25 -162 117 -105 95 -201
180 -228 201 l-28 22 39 37 c94 91 113 236 46 349 l-18 31 46 43 c77 72 237
220 265 244 20 17 29 20 38 11 17 -17 61 -56 195 -172 63 -55 121 -106 129
-113 11 -11 7 -18 -25 -46 -35 -30 -83 -107 -91 -146 -38 -184 105 -354 290
-345 94 5 163 46 235 140 11 14 32 94 34 130 3 40 -11 113 -23 121 -5 3 -7 9
-4 13 10 18 -91 110 -149 137 -35 16 -96 60 -150 108 -51 44 -118 104 -150
131 -33 28 -79 68 -103 89 l-44 39 40 41 c95 97 107 256 27 361 -14 18 -26 36
-26 39 0 7 320 326 328 326 4 0 57 -47 117 -105 61 -58 135 -128 167 -157 l56
-52 -24 -29 c-73 -87 -91 -203 -47 -299 45 -98 144 -168 243 -172 22 -1 102
11 121 19 11 4 29 -14 65 -67 27 -40 51 -75 54 -78 4 -3 32 -42 63 -87 l57
-81 -31 -50 c-66 -106 -50 -247 36 -336 l43 -44 -46 -38 c-25 -22 -50 -43 -56
-49 -6 -5 -40 -34 -76 -64 -36 -30 -69 -60 -75 -65 -5 -6 -35 -31 -65 -56 -30
-25 -65 -54 -78 -66 -13 -11 -50 -29 -83 -38 -107 -32 -188 -135 -194 -246 -8
-131 68 -246 188 -286 142 -47 278 10 348 145 18 35 23 61 23 120 0 86 -19
133 -80 200 l-34 39 47 38 c26 22 61 51 78 66 16 15 41 37 55 48 41 34 121
103 160 137 21 18 41 33 46 33 9 0 48 -35 233 -210 61 -58 111 -108 111 -111
0 -3 -18 -24 -40 -47 -60 -64 -78 -113 -76 -203 2 -62 8 -86 28 -121 50 -85
112 -129 204 -145 169 -30 330 102 327 271 -1 70 -5 88 -29 135 -36 72 -117
132 -198 148 -11 2 -21 5 -23 6 -1 2 -58 55 -125 118 -66 63 -150 141 -186
175 l-64 61 42 43 c53 55 81 119 82 190 0 46 -6 95 -12 95 -1 0 -3 8 -5 17 -5
28 -56 93 -94 120 -60 43 -104 57 -177 55 l-67 -2 -67 95 c-37 52 -90 129
-118 170 l-52 75 20 57 c50 150 -21 305 -168 361 -23 9 -44 17 -47 17 -3 0
-20 0 -38 0 -37 0 -27 -8 -249 202 l-134 128 48 51 c60 64 83 134 74 221 -7
70 -25 107 -78 164 -60 64 -151 96 -239 83z m112 -182 c89 -63 48 -202 -63
-214 -55 -6 -102 21 -123 71 -48 114 83 215 186 143z m-547 -842 c102 -49 74
-210 -39 -226 -125 -17 -190 148 -86 218 39 27 80 29 125 8z m1056 2 c42 -21
72 -76 66 -120 -18 -125 -180 -151 -231 -36 -46 102 64 207 165 156z m553
-769 c62 -32 89 -114 55 -168 -30 -50 -66 -66 -135 -61 -30 2 -70 39 -87 81
-38 94 77 196 167 148z m-2135 -51 c49 -45 45 -139 -8 -179 -82 -60 -200 -6
-200 92 0 108 126 161 208 87z m1037 -51 c98 -64 60 -211 -57 -221 -106 -9
-170 114 -101 195 14 18 36 35 47 40 30 11 82 5 111 -14z m-1593 -804 c79 -78
24 -201 -90 -204 -120 -4 -158 172 -51 230 39 21 107 9 141 -26z m1028 25 c41
-21 72 -76 66 -119 -7 -51 -24 -75 -68 -97 -127 -63 -238 107 -132 200 36 31
91 38 134 16z m1132 -13 c68 -51 57 -162 -21 -203 -78 -42 -192 32 -176 114 2
11 4 26 4 34 1 7 18 29 38 48 33 32 41 35 83 31 26 -3 58 -13 72 -24z m1046 6
c59 -36 73 -107 35 -171 -55 -94 -221 -46 -223 64 -1 99 104 158 188 107z"/>
<path d="M1036 783 c-6 -14 -5 -15 5 -6 7 7 10 15 7 18 -3 3 -9 -2 -12 -12z"/>
<path d="M1355 769 c-4 -6 -5 -12 -2 -15 2 -3 7 2 10 11 7 17 1 20 -8 4z"/>
<path d="M790 759 c0 -5 5 -7 10 -4 6 3 10 8 10 11 0 2 -4 4 -10 4 -5 0 -10
-5 -10 -11z"/>
<path d="M1790 759 c0 -5 5 -7 10 -4 6 3 10 8 10 11 0 2 -4 4 -10 4 -5 0 -10
-5 -10 -11z"/>
<path d="M655 580 c-3 -5 -1 -10 4 -10 6 0 11 5 11 10 0 6 -2 10 -4 10 -3 0
-8 -4 -11 -10z"/>
<path d="M1055 580 c3 -5 8 -10 11 -10 2 0 4 5 4 10 0 6 -5 10 -11 10 -5 0 -7
-4 -4 -10z"/>
<path d="M1505 580 c-3 -6 1 -7 9 -4 18 7 21 14 7 14 -6 0 -13 -4 -16 -10z"/>
<path d="M2347 569 c4 -13 8 -18 11 -10 2 7 -1 18 -6 23 -8 8 -9 4 -5 -13z"/>
<path d="M915 569 c-4 -6 -5 -12 -2 -15 2 -3 7 2 10 11 7 17 1 20 -8 4z"/>
<path d="M1109 563 c-13 -16 -12 -17 4 -4 16 13 21 21 13 21 -2 0 -10 -8 -17
-17z"/>
<path d="M1390 576 c0 -2 8 -10 18 -17 15 -13 16 -12 3 4 -13 16 -21 21 -21
13z"/>
<path d="M1205 530 c-3 -6 1 -7 9 -4 18 7 21 14 7 14 -6 0 -13 -4 -16 -10z"/>
</g>
</svg>
