<svg xmlns="http://www.w3.org/2000/svg" xmlns:xlink="http://www.w3.org/1999/xlink" version="1.1" x="0px" y="0px" viewBox="0 0 128 160" style="enable-background:new 0 0 128 128;" xml:space="preserve"><g><g><path d="M64,126C29.813,126,2,98.187,2,64S29.813,2,64,2s62,27.813,62,62S98.187,126,64,126z M64,6    C32.019,6,6,32.019,6,64s26.019,58,58,58s58-26.019,58-58S95.981,6,64,6z"/><g><g><path d="M64.661,35.784c-3.911,0-7.092-3.168-7.092-7.062s3.182-7.061,7.092-7.061s7.092,3.167,7.092,7.061      S68.572,35.784,64.661,35.784z M64.661,25.661c-1.705,0-3.092,1.373-3.092,3.061s1.387,3.062,3.092,3.062      s3.092-1.374,3.092-3.062S66.366,25.661,64.661,25.661z"/><path d="M51.438,57.088c-3.911,0-7.093-3.167-7.093-7.061s3.182-7.062,7.093-7.062      c3.911,0,7.092,3.168,7.092,7.062S55.349,57.088,51.438,57.088z M51.438,46.966c-1.706,0-3.093,1.374-3.093,3.062      s1.387,3.061,3.093,3.061c1.705,0,3.092-1.373,3.092-3.061S53.143,46.966,51.438,46.966z"/><path d="M77.884,57.088c-3.911,0-7.092-3.167-7.092-7.061s3.182-7.062,7.092-7.062      c3.911,0,7.093,3.168,7.093,7.062S81.795,57.088,77.884,57.088z M77.884,46.966c-1.705,0-3.092,1.374-3.092,3.062      s1.387,3.061,3.092,3.061c1.706,0,3.093-1.373,3.093-3.061S79.59,46.966,77.884,46.966z"/><path d="M53.17,47.273c-0.512,0-1.024-0.195-1.415-0.586c-0.781-0.781-0.781-2.047,0-2.828L63.247,32.37      c0.767-0.767,2.003-0.783,2.791-0.037L78,43.678c0.801,0.76,0.835,2.026,0.075,2.828c-0.76,0.801-2.025,0.835-2.828,0.075      L64.698,36.575L54.584,46.687C54.194,47.078,53.682,47.273,53.17,47.273z"/></g><g><path d="M37.553,77.034c-3.911,0-7.092-3.168-7.092-7.062s3.182-7.061,7.092-7.061s7.092,3.167,7.092,7.061      S41.464,77.034,37.553,77.034z M37.553,66.912c-1.705,0-3.092,1.373-3.092,3.061s1.387,3.062,3.092,3.062      s3.092-1.374,3.092-3.062S39.258,66.912,37.553,66.912z"/><path d="M64,78.679c-3.911,0-7.092-3.167-7.092-7.061s3.182-7.062,7.092-7.062s7.092,3.168,7.092,7.062      S67.911,78.679,64,78.679z M64,68.557c-1.705,0-3.092,1.374-3.092,3.062s1.387,3.061,3.092,3.061s3.092-1.373,3.092-3.061      S65.705,68.557,64,68.557z"/><path d="M64.66,68.604c-0.466,0-0.934-0.162-1.313-0.492L51.481,57.778L41.48,67.071      c-0.809,0.753-2.074,0.706-2.827-0.104c-0.751-0.809-0.705-2.075,0.104-2.827l11.319-10.518c0.75-0.697,1.904-0.714,2.675-0.043      l13.223,11.516c0.833,0.726,0.92,1.989,0.195,2.822C65.774,68.372,65.219,68.604,64.66,68.604z"/></g><g><path d="M23.669,98.339c-3.911,0-7.092-3.167-7.092-7.061s3.182-7.062,7.092-7.062s7.092,3.168,7.092,7.062      S27.58,98.339,23.669,98.339z M23.669,88.216c-1.705,0-3.092,1.374-3.092,3.062s1.387,3.061,3.092,3.061      s3.092-1.373,3.092-3.061S25.374,88.216,23.669,88.216z"/><path d="M50.116,98.339c-3.911,0-7.093-3.167-7.093-7.061s3.182-7.062,7.093-7.062      c3.911,0,7.092,3.168,7.092,7.062S54.026,98.339,50.116,98.339z M50.116,88.216c-1.706,0-3.093,1.374-3.093,3.062      s1.387,3.061,3.093,3.061c1.705,0,3.092-1.373,3.092-3.061S51.821,88.216,50.116,88.216z"/><path d="M23.67,88.216c-0.585,0-1.164-0.255-1.559-0.746c-0.693-0.86-0.557-2.119,0.303-2.812l13.884-11.182      c0.761-0.612,1.854-0.586,2.584,0.063l12.563,11.182c0.825,0.735,0.899,1.999,0.165,2.824c-0.736,0.825-2,0.898-2.824,0.165      L37.489,77.654l-12.565,10.12C24.554,88.072,24.11,88.216,23.67,88.216z"/></g><g><path d="M91.769,76.369c-3.911,0-7.092-3.167-7.092-7.061s3.182-7.062,7.092-7.062s7.092,3.168,7.092,7.062      S95.68,76.369,91.769,76.369z M91.769,66.247c-1.705,0-3.092,1.374-3.092,3.062s1.387,3.061,3.092,3.061      s3.092-1.373,3.092-3.061S93.474,66.247,91.769,66.247z"/><path d="M77.884,98.339c-3.911,0-7.092-3.167-7.092-7.061s3.182-7.062,7.092-7.062      c3.911,0,7.093,3.168,7.093,7.062S81.795,98.339,77.884,98.339z M77.884,88.216c-1.705,0-3.092,1.374-3.092,3.062      s1.387,3.061,3.092,3.061c1.706,0,3.093-1.373,3.093-3.061S79.59,88.216,77.884,88.216z"/><path d="M104.331,98.339c-3.911,0-7.092-3.167-7.092-7.061s3.182-7.062,7.092-7.062s7.092,3.168,7.092,7.062      S108.242,98.339,104.331,98.339z M104.331,88.216c-1.705,0-3.092,1.374-3.092,3.062s1.387,3.061,3.092,3.061      s3.092-1.373,3.092-3.061S106.036,88.216,104.331,88.216z"/><path d="M77.885,88.216c-0.565,0-1.127-0.238-1.522-0.702c-0.717-0.84-0.617-2.103,0.223-2.82l13.885-11.847      c0.776-0.663,1.927-0.634,2.67,0.066l12.562,11.847c0.804,0.758,0.841,2.024,0.083,2.827c-0.758,0.804-2.024,0.84-2.827,0.083      L91.702,77.055l-12.52,10.683C78.806,88.059,78.344,88.216,77.885,88.216z"/><path d="M89.254,66.912c-0.63,0-1.25-0.296-1.639-0.852l-7.867-11.215c-0.634-0.904-0.416-2.151,0.489-2.786      c0.904-0.635,2.151-0.416,2.786,0.489l7.867,11.215c0.634,0.904,0.416,2.151-0.489,2.786      C90.052,66.794,89.651,66.912,89.254,66.912z"/></g></g></g></g><text x="0" y="143" fill="#000000" font-size="5px" font-weight="bold" font-family="'Helvetica Neue', Helvetica, Arial-Unicode, Arial, Sans-serif">Created by SBTS</text><text x="0" y="148" fill="#000000" font-size="5px" font-weight="bold" font-family="'Helvetica Neue', Helvetica, Arial-Unicode, Arial, Sans-serif">from the Noun Project</text></svg>